<svg xmlns="http://www.w3.org/2000/svg" viewBox="0 0 24 24" width="36" height="36" fill="currentColor">
  <path d="M12 0a12 12 0 0 0-3.79 23.4c.6.11.82-.26.82-.58v-2.03c-3.34.73-4.04-1.61-4.04-1.61-.55-1.38-1.34-1.75-1.34-1.75-1.09-.74.08-.73.08-.73 1.21.09 1.85 1.24 1.85 1.24 1.07 1.83 2.81 1.3 3.5.99.11-.78.42-1.3.76-1.6-2.67-.3-5.47-1.34-5.47-5.95 0-1.31.47-2.38 1.24-3.22-.12-.3-.54-1.52.12-3.17 0 0 1.01-.32 3.3 1.23a11.5 11.5 0 0 1 6 0c2.29-1.55 3.3-1.23 3.3-1.23.66 1.65.24 2.87.12 3.17.77.84 1.24 1.91 1.24 3.22 0 4.62-2.8 5.64-5.48 5.94.43.37.81 1.1.81 2.23v3.3c0 .32.22.69.82.58A12 12 0 0 0 12 0Z"/>
</svg>
